<?xml version="1.0" standalone="no"?>
<!DOCTYPE svg PUBLIC "-//W3C//DTD SVG 20010904//EN"
 "http://www.w3.org/TR/2001/REC-SVG-20010904/DTD/svg10.dtd">
<svg version="1.0" xmlns="http://www.w3.org/2000/svg"
 width="298.000000pt" height="298.000000pt" viewBox="0 0 298.000000 298.000000"
 preserveAspectRatio="xMidYMid meet">
<metadata>
Created by potrace 1.11, written by Peter Selinger 2001-2013
</metadata>
<g transform="translate(0.000000,298.000000) scale(0.100000,-0.100000)"
fill="#000000" stroke="none">
<path d="M385 2906 c-137 -44 -241 -151 -285 -293 -19 -62 -20 -92 -20 -722 0
-561 2 -665 16 -716 41 -158 171 -283 329 -315 44 -9 132 -11 332 -6 l271 6 7
-65 c9 -80 5 -91 -37 -100 -18 -4 -62 -20 -96 -36 -179 -81 -338 -250 -407
-433 -31 -83 -31 -101 0 -131 l24 -25 964 0 964 0 23 25 c31 33 24 82 -28 188
-51 106 -120 196 -200 263 -68 56 -196 124 -271 144 -43 11 -43 12 -37 48 3
20 6 54 6 74 l0 37 307 3 c288 3 311 5 361 25 119 48 213 150 256 277 20 59
21 85 24 675 2 386 -1 646 -7 699 -20 160 -108 290 -240 355 l-66 32 -1075 2
c-849 1 -1083 -1 -1115 -11z m1802 -1562 c-3 -3 -12 -4 -19 -1 -8 3 -5 6 6 6
11 1 17 -2 13 -5z"/>
</g>
</svg>
